<svg xmlns="http://www.w3.org/2000/svg" version="1.1" xmlns:xlink="http://www.w3.org/1999/xlink" width="512" height="512" x="0" y="0" viewBox="0 0 512 512"
     style="enable-background:new 0 0 512 512" xml:space="preserve" class=""><g><path d="M459.2 52.8H190.3c-13.6 0-26.3 5.3-36.8 15.8L16.9 220.1C7.3 229.7 2 242.4 2 256s5.3 26.3 14 35l138.4 153.3c9.6 9.6 22.3 14.9 35.9 14.9h268.9c28 0 50.8-22.8 50.8-50.8V103.6c0-28-22.8-50.8-50.8-50.8zm-268 356.6L53.7 255.1l136.6-151.5h268.9v304.8z" fill="#000000" opacity="1" data-original="#000000" class=""></path><path
        d="M401 161.8c-9.9-9.9-26-9.9-35.9 0L306.9 220l-58.2-58.2c-9.9-9.9-26-9.9-35.9 0s-9.9 26 0 35.9l58.2 58.2-58.2 58.2c-9.9 9.9-9.9 26 0 35.9 5 5 11.5 7.4 18 7.4s13-2.5 18-7.4l58.2-58.2 58.2 58.2c5 5 11.5 7.4 18 7.4s13-2.5 18-7.4c9.9-9.9 9.9-26 0-35.9L342.7 256l58.2-58.2c10-10 10-26 .1-36z"
        fill="#000000" opacity="1" data-original="#000000" class=""></path></g></svg>