<svg xmlns="http://www.w3.org/2000/svg" version="1.1" xmlns:xlink="http://www.w3.org/1999/xlink" width="512" height="512" x="0" y="0" viewBox="0 0 510 510"
     style="enable-background:new 0 0 512 512" xml:space="preserve" class=""><g><path d="M490.019 261.75h-99.417a157.403 157.403 0 0 0-8.242-34.98h109.2c8.22 0 14.909-6.615 14.999-14.835C507.859 93.608 412.344 0 297.139 0c-8.284 0-15 6.716-15 15v114.522a157.467 157.467 0 0 0-34.14-7.084V65.88c0-8.284-6.716-15-15-15-126.877 0-229.57 102.67-229.57 229.561C3.429 407.311 106.11 510 232.999 510c50.79 0 98.922-16.255 139.193-47.008 6.625-5.059 7.84-14.539 2.758-21.104l-34.584-44.679a159.9 159.9 0 0 0 26.804-32.09l43.177 55.782c5.047 6.52 14.411 7.745 20.966 2.739 46.166-35.259 73.03-88.734 73.705-146.716.096-8.351-6.652-15.174-14.999-15.174zM312.139 30.613c86.418 7.097 157.743 76.416 163.989 166.156H367.802c-13.829-22.202-32.979-40.76-55.663-53.865zm29.503 417.256C309.332 468.937 272.072 480 232.999 480c-110.043 0-199.57-89.522-199.57-199.56 0-104.994 81.504-191.311 184.57-199.003v40.999c-80.51 7.58-143.722 75.543-143.722 158.003 0 87.516 71.199 158.715 158.715 158.715 30.611 0 59.219-8.72 83.489-23.792zm-108.65-38.715c-70.974 0-128.715-57.741-128.715-128.715 0-70.975 57.741-128.716 128.715-128.716s128.715 57.741 128.715 128.716c0 70.974-57.741 128.715-128.715 128.715zm191.535-18.946-42.565-54.992a157.567 157.567 0 0 0 9.338-43.466h82.824c-4.054 37.861-21.548 72.591-49.597 98.458z" fill="currentColor" data-original="#000000" class=""></path><path
        d="M249.099 265.439h-32.215c-7.681 0-13.93-6.249-13.93-13.931 0-7.705 6.237-13.93 13.926-13.93l.218.001h30.851c5.504.055 10.948 2.527 14.941 6.789 5.666 6.044 15.157 6.353 21.202.687 6.044-5.665 6.353-15.157.688-21.202-10.033-10.705-23.772-16.273-36.789-16.273v-13.067c0-8.284-6.716-15-15-15s-15 6.716-15 15v13.067c-27.042 0-45.037 20.899-45.037 43.929 0 24.224 19.707 43.931 43.93 43.931h32.215c7.681 0 13.93 6.249 13.93 13.93 0 7.405-5.851 13.93-14.144 13.93h-33.66c-3.887-.04-8.017-1.442-11.633-3.951-6.807-4.724-16.153-3.032-20.875 3.773-4.722 6.807-3.033 16.152 3.773 20.875 10.526 7.303 20.151 9.303 31.5 9.303v13.067c0 8.284 6.716 15 15 15s15-6.716 15-15V353.3c27.265 0 45.038-21.103 45.038-43.93.002-24.224-19.705-43.931-43.929-43.931z"
        fill="currentColor" class=""></path></g></svg>