<svg xmlns="http://www.w3.org/2000/svg" version="1.1" xmlns:xlink="http://www.w3.org/1999/xlink" width="512" height="512" x="0" y="0" viewBox="0 0 32 32"
     style="enable-background:new 0 0 512 512" xml:space="preserve" class=""><g><path d="M19 12V6a1 1 0 0 0-1-1H6a1 1 0 0 0-1 1v6a1 1 0 0 0 1 1h12a1 1 0 0 0 1-1zm-2-1H7V7h10z" fill="#000000" opacity="1" data-original="#000000" class=""></path><path
        d="M14 29H4a1 1 0 0 1-1-1V4a1 1 0 0 1 1-1h16a1 1 0 0 1 1 1v7a1 1 0 1 0 2 0V4c0-1.654-1.346-3-3-3H4C2.346 1 1 2.346 1 4v24c0 1.654 1.346 3 3 3h10a1 1 0 1 0 0-2z"
        fill="#000000" opacity="1" data-original="#000000" class=""></path><path
        d="M11 16h-1a1 1 0 1 0 0 2h1a1 1 0 1 0 0-2zM7 16H6a1 1 0 1 0 0 2h1a1 1 0 1 0 0-2zM11 19h-1a1 1 0 1 0 0 2h1a1 1 0 1 0 0-2zM7 19H6a1 1 0 1 0 0 2h1a1 1 0 1 0 0-2zM11 22h-1a1 1 0 1 0 0 2h1a1 1 0 1 0 0-2zM11 25h-1a1 1 0 1 0 0 2h1a1 1 0 1 0 0-2zM7 22H6a1 1 0 1 0 0 2h1a1 1 0 1 0 0-2zM7 25H6a1 1 0 1 0 0 2h1a1 1 0 1 0 0-2zM22 13c-4.963 0-9 4.037-9 9s4.037 9 9 9 9-4.037 9-9-4.037-9-9-9zm0 16c-3.86 0-7-3.14-7-7s3.14-7 7-7 7 3.14 7 7-3.14 7-7 7z"
        fill="#000000" opacity="1" data-original="#000000" class=""></path><path
        d="M22 19a1 1 0 0 1 1 1 1 1 0 1 0 2 0 2.995 2.995 0 0 0-2-2.816V17a1 1 0 1 0-2 0v.184A2.995 2.995 0 0 0 19 20c0 1.654 1.346 3 3 3a1 1 0 1 1-1 1 1 1 0 1 0-2 0c0 1.302.839 2.402 2 2.816V27a1 1 0 1 0 2 0v-.184A2.995 2.995 0 0 0 25 24c0-1.654-1.346-3-3-3a1 1 0 0 1 0-2z"
        fill="#000000" opacity="1" data-original="#000000" class=""></path></g></svg>