<svg xmlns="http://www.w3.org/2000/svg" version="1.1" xmlns:xlink="http://www.w3.org/1999/xlink" width="512" height="512" x="0" y="0" viewBox="0 0 36 36" style="enable-background:new 0 0 512 512" xml:space="preserve" class=""><g><path d="M19.12 23.32H17v-1.07h-1.65v-2.13h3.24a.53.53 0 0 0 .53-.53.54.54 0 0 0-.53-.54h-1.07a2.67 2.67 0 0 1-.52-5.28v-1.12h2.13v1.07h1.55v2.13h-3.16a.53.53 0 0 0 0 1.07h1.07a2.65 2.65 0 0 1 1.88.78 2.67 2.67 0 0 1-1.35 4.5Z" fill="#000000" opacity="1" data-original="#000000" class=""></path><path d="M31.87 26.52v3.82L27 25.5a11.72 11.72 0 0 0 0-15l4.81-4.81v3.79H34v-6.4A1.07 1.07 0 0 0 32.9 2h-6.4v2.15h3.82L25.51 9a11.72 11.72 0 0 0-15 0L5.67 4.15H9.5V2H3.1A1.07 1.07 0 0 0 2 3.08v6.4h2.16V5.66L9 10.47a11.71 11.71 0 0 0 0 15l-4.87 4.87v-3.82H2v6.4A1.07 1.07 0 0 0 3.07 34h6.4v-2.15H5.64L10.49 27a11.72 11.72 0 0 0 15 0l4.85 4.85h-3.81V34h6.4A1.07 1.07 0 0 0 34 32.92v-6.4ZM8.38 18A9.62 9.62 0 1 1 18 27.6 9.63 9.63 0 0 1 8.38 18Z" fill="#000000" opacity="1" data-original="#000000" class=""></path></g></svg>