<svg xmlns="http://www.w3.org/2000/svg" version="1.1" xmlns:xlink="http://www.w3.org/1999/xlink" width="512" height="512" x="0" y="0" viewBox="0 0 128 128" style="enable-background:new 0 0 512 512" xml:space="preserve" class=""><g><path d="M10.127 26.904h58.979c1.842 8.508 9.419 14.904 18.47 14.904s16.628-6.396 18.47-14.904h11.827a4 4 0 0 0 0-8h-11.827C104.204 10.396 96.627 4 87.576 4s-16.628 6.396-18.47 14.904H10.127a4 4 0 0 0 0 8zM87.576 12c6.013 0 10.904 4.892 10.904 10.904s-4.892 10.904-10.904 10.904-10.904-4.892-10.904-10.904S81.563 12 87.576 12zM117.873 60H58.894c-1.842-8.508-9.419-14.904-18.47-14.904S23.796 51.492 21.954 60H10.127a4 4 0 0 0 0 8h11.827c1.842 8.508 9.419 14.904 18.47 14.904S57.052 76.508 58.894 68h58.979a4 4 0 0 0 0-8zM40.424 74.904c-6.013 0-10.904-4.892-10.904-10.904s4.892-10.904 10.904-10.904S51.328 57.987 51.328 64s-4.891 10.904-10.904 10.904zM117.873 101.096h-11.827c-1.842-8.508-9.419-14.904-18.47-14.904s-16.628 6.396-18.47 14.904H10.127a4 4 0 0 0 0 8h58.979C70.948 117.604 78.525 124 87.576 124s16.628-6.396 18.47-14.904h11.827a4 4 0 0 0 0-8zM87.576 116c-6.013 0-10.904-4.892-10.904-10.904s4.892-10.904 10.904-10.904 10.904 4.892 10.904 10.904S93.589 116 87.576 116z" fill="#000000" opacity="1" data-original="#000000" class=""></path></g></svg>