<svg xmlns="http://www.w3.org/2000/svg" version="1.1" xmlns:xlink="http://www.w3.org/1999/xlink" width="512" height="512" x="0" y="0" viewBox="0 0 24 24" style="enable-background:new 0 0 512 512" xml:space="preserve" class=""><g><g data-name="Layer 2"><path d="M12 12.75a2.568 2.568 0 1 1 2.568-2.568.75.75 0 0 1-1.5 0A1.068 1.068 0 1 0 12 11.25a.75.75 0 0 1 0 1.5z" fill="#000000" opacity="1" data-original="#000000" class=""></path><path d="M12 16.386a2.571 2.571 0 0 1-2.568-2.568.75.75 0 0 1 1.5 0A1.068 1.068 0 1 0 12 12.75a.75.75 0 0 1 0-1.5 2.568 2.568 0 1 1 0 5.136zM12 9.114a.75.75 0 0 1-.75-.75V7a.75.75 0 0 1 1.5 0v1.364a.75.75 0 0 1-.75.75z" fill="#000000" opacity="1" data-original="#000000" class=""></path><path d="M12 17.75a.75.75 0 0 1-.75-.75v-1.364a.75.75 0 1 1 1.5 0V17a.75.75 0 0 1-.75.75zM21 7.75h-4a.75.75 0 0 1-.75-.75V3a.75.75 0 0 1 1.5 0v3.25H21a.75.75 0 0 1 0 1.5z" fill="#000000" opacity="1" data-original="#000000" class=""></path><path d="M17 7.75a.75.75 0 0 1-.53-1.28l5-5a.75.75 0 0 1 1.06 1.06l-5 5a.747.747 0 0 1-.53.22z" fill="#000000" opacity="1" data-original="#000000" class=""></path><path d="M12 22.75a10.75 10.75 0 0 1 0-21.5.75.75 0 0 1 0 1.5A9.25 9.25 0 1 0 21.25 12a.75.75 0 0 1 1.5 0A10.762 10.762 0 0 1 12 22.75z" fill="#000000" opacity="1" data-original="#000000" class=""></path></g></g></svg>