<svg xmlns="http://www.w3.org/2000/svg" version="1.1" xmlns:xlink="http://www.w3.org/1999/xlink" width="512" height="512" x="0" y="0" viewBox="0 0 512 512"
     style="enable-background:new 0 0 512 512" xml:space="preserve" class="">
    <g>
        <path fill="currentColor"
              d="m398.137 209.662-29.566-32.86h11.347a5 5 0 0 0 5-5V109.51h26.438v62.292a5 5 0 0 0 5 5h11.347zM260.566 83.292h-11.347a5 5 0 0 1-5-5V16h-26.438v62.292a5 5 0 0 1-5 5h-11.347L231 116.151zm-167.138 93.51H82.081a5 5 0 0 1-5-5V109.51H50.643v62.292a5 5 0 0 1-5 5H34.296l29.566 32.859zM231 467.823c6.73 0 13.421-.286 19.999-.842-5.597-7.201-8.665-15.097-8.665-23.423V432.79c-3.761.17-7.553.263-11.334.263-51.429 0-94.561-15.183-113.28-37.374v19.702c0 28.426 51.876 52.442 113.28 52.442zm0-44.77c3.782 0 7.577-.094 11.334-.271v-34.761c-3.764.17-7.557.263-11.334.263-51.429 0-94.561-15.183-113.28-37.375v19.702c0 28.427 51.876 52.442 113.28 52.442zm0-44.769c3.779 0 7.573-.094 11.334-.271V354.02c0-3.69.611-7.32 1.797-10.863a250.29 250.29 0 0 1-13.131.358c-51.429 0-94.561-15.183-113.28-37.374v19.701c0 28.427 51.876 52.442 113.28 52.442zm129.614-47.76c-4.335.612-8.145 2.002-10.394 4.063-1.629 1.494-2.462 3.218-2.345 4.854.131 1.829 1.459 3.694 3.739 5.251 2.226 1.52 5.459 2.569 9 3.441v-17.61zm5 130.707c-51.429 0-94.561-15.183-113.28-37.375v19.702c0 28.426 51.876 52.442 113.28 52.442s113.28-24.016 113.28-52.442v-19.702c-18.719 22.191-61.851 37.375-113.28 37.375zm18.416-89.637c.688-2.072.291-3.221-.132-3.99-1.478-2.689-6.316-5.238-13.284-7.011v17.103c7.369-.688 12.524-3.415 13.416-6.102zm-18.416-70.017c61.404 0 113.28 24.016 113.28 52.442s-51.876 52.442-113.28 52.442-113.28-24.016-113.28-52.442 51.876-52.442 113.28-52.442zm-5 56.822v18.927c-6.527-1.11-12.698-3.965-13.953-8.702a5 5 0 1 0-9.666 2.56c2.687 10.145 13.239 14.928 23.619 16.27v6.291a5 5 0 0 0 10 0v-6.022c9.684-.714 20.042-4.349 22.906-12.98 1.407-4.239 1.11-8.374-.859-11.957-2.996-5.452-9.486-9.361-19.843-11.954a97.331 97.331 0 0 0-2.205-.518v-19.818c1.654.222 3.282.551 4.83 1.009 4.971 1.473 8.247 3.96 8.987 6.825a4.996 4.996 0 0 0 6.091 3.59 4.998 4.998 0 0 0 3.59-6.091c-1.664-6.441-7.285-11.382-15.829-13.912-2.347-.695-4.954-1.186-7.669-1.466v-6.159a5 5 0 0 0-10 0v6.162c-6.545.698-12.841 2.809-17.151 6.761-3.926 3.6-5.901 8.194-5.562 12.938.354 4.936 3.221 9.48 8.074 12.795 4.083 2.789 9.306 4.26 14.639 5.448zm90.754 40.703c-23.05 11.194-53.504 17.359-85.754 17.359s-62.704-6.165-85.754-17.359c-11.907-5.783-21.176-12.598-27.526-20.092v19.778c0 28.427 51.876 52.442 113.28 52.442s113.28-24.016 113.28-52.442V379.01c-6.35 7.494-15.619 14.309-27.526 20.092zm-220.369-65.588c6.184 0 12.368-.252 18.433-.722 6.264-8.98 16.555-17.119 30.428-23.856 17.147-8.327 38.395-13.866 61.427-16.159 1.979-3.844 2.992-7.771 2.992-11.704v-19.701c-18.719 22.191-61.851 37.374-113.28 37.374s-94.561-15.183-113.28-37.374v19.701c0 28.426 51.876 52.442 113.28 52.442zm0-44.769c61.404 0 113.28-24.015 113.28-52.442v-19.778c-6.35 7.494-15.619 14.309-27.526 20.092-23.05 11.194-53.505 17.359-85.754 17.359s-62.704-6.165-85.754-17.359c-11.908-5.783-21.176-12.599-27.526-20.093v19.779c0 28.427 51.876 52.442 113.28 52.442zm-113.28-97.211c0-28.427 51.875-52.442 113.28-52.442s113.28 24.016 113.28 52.442-51.875 52.442-113.28 52.442-113.28-24.016-113.28-52.442zm108.28 4.38v18.927c-6.528-1.11-12.699-3.965-13.954-8.702a5 5 0 0 0-9.666 2.56c2.687 10.145 13.239 14.928 23.62 16.27v6.291a5 5 0 0 0 10 0v-6.022c9.684-.715 20.041-4.349 22.906-12.979 1.408-4.239 1.111-8.374-.858-11.957-2.996-5.452-9.486-9.362-19.843-11.955a98.516 98.516 0 0 0-2.204-.518v-19.818c1.654.222 3.282.55 4.83 1.009 4.971 1.473 8.246 3.96 8.986 6.825a4.996 4.996 0 0 0 6.091 3.59 4.999 4.999 0 0 0 3.59-6.091c-1.663-6.44-7.285-11.381-15.828-13.912-2.348-.695-4.954-1.185-7.67-1.466v-6.16a5 5 0 0 0-10 0v6.163c-6.545.698-12.841 2.809-17.151 6.761-3.926 3.6-5.901 8.195-5.562 12.938.353 4.936 3.221 9.48 8.074 12.795 4.083 2.789 9.306 4.26 14.639 5.448zm23.416 13.195c.688-2.072.291-3.221-.132-3.99-1.478-2.689-6.315-5.239-13.284-7.011v17.104c7.367-.687 12.524-3.417 13.416-6.103zm-23.416-41.07c-4.335.612-8.145 2.002-10.394 4.063-1.629 1.495-2.462 3.218-2.346 4.854.131 1.829 1.459 3.693 3.74 5.251 2.226 1.52 5.46 2.569 9 3.441z"
              opacity="1" data-original="url(#a)" class=""></path>
    </g>
</svg>