<svg xmlns="http://www.w3.org/2000/svg" version="1.1" xmlns:xlink="http://www.w3.org/1999/xlink" width="512" height="512" x="0" y="0" viewBox="0 0 512 512" style="enable-background:new 0 0 512 512" xml:space="preserve" class=""><g><path d="M195.84 396.395c-8.27 0-15-6.73-15-15 0-8.286-6.715-15-15-15s-15 6.714-15 15c0 19.613 12.617 36.324 30.16 42.472V437c0 8.285 6.715 15 15 15s15-6.715 15-15v-13.242c17.375-6.235 29.84-22.867 29.84-42.363 0-24.813-20.188-45-45-45-8.27 0-15-6.73-15-15 0-8.274 6.73-15 15-15s15 6.726 15 15c0 8.285 6.715 15 15 15s15-6.715 15-15c0-19.497-12.465-36.13-29.84-42.368V257c0-8.285-6.715-15-15-15s-15 6.715-15 15v21.918c-17.543 6.148-30.16 22.86-30.16 42.477 0 24.812 20.187 45 45 45 8.27 0 15 6.726 15 15 0 8.27-6.73 15-15 15zm0 0" fill="#000000" opacity="1" data-original="#000000" class=""></path><path d="M61.14 487.504C92.356 504.214 135.21 512 196 512c49.46 0 86.688-5.125 115.61-16.023C319.87 505.766 332.218 512 346 512h121c24.813 0 45-20.188 45-45 0-11.516-4.355-22.031-11.496-30 7.144-7.969 11.496-18.484 11.496-30s-4.355-22.031-11.496-30c7.144-7.969 11.496-18.484 11.496-30s-4.355-22.031-11.496-30c7.144-7.969 11.496-18.484 11.496-30 0-24.813-20.188-45-45-45H346c-1.46 0-2.906.074-4.332.215-15.055-18.235-32.695-33.524-52.133-45.25C296.656 189.004 301 178.5 301 167c0-17.926-10.54-33.434-25.746-40.664l25.008-76.684A15 15 0 0 0 286 30h-47.578C232.227 12.54 215.555 0 196 0c-19.559 0-36.238 12.54-42.43 30H106a15 15 0 0 0-14.262 19.652l25.008 76.684C101.54 133.566 91 149.074 91 167c0 11.508 4.348 22.02 11.48 29.984C42.297 233.31 0 302.297 0 377c0 51.605 20.57 88.781 61.14 110.504zM482 347c0 8.27-6.73 15-15 15H346c-8.27 0-15-6.73-15-15s6.73-15 15-15h121c8.27 0 15 6.73 15 15zm0 60c0 8.27-6.73 15-15 15H346c-8.27 0-15-6.73-15-15s6.73-15 15-15h121c8.27 0 15 6.73 15 15zm-15 75H346c-8.27 0-15-6.73-15-15s6.73-15 15-15h121c8.27 0 15 6.73 15 15s-6.73 15-15 15zm15-195c0 8.27-6.73 15-15 15H346c-8.27 0-15-6.73-15-15s6.73-15 15-15h121c8.27 0 15 6.73 15 15zM255.57 182H136.434c-.133-.004-.266 0-.399 0H136c-8.27 0-15-6.73-15-15 0-8.254 6.703-14.973 14.953-14.996h.043c.035 0 .07-.004.106-.004h119.793c.035 0 .074.004.109.004h.043c8.25.023 14.953 6.742 14.953 14.996 0 8.27-6.73 15-15 15h-.047c-.125 0-.254-.004-.383 0zM166 60c8.285 0 15-6.715 15-15 0-8.27 6.73-15 15-15s15 6.73 15 15v30c0 8.285 6.715 15 15 15s15-6.715 15-15V60h24.332l-20.219 62h-98.226l-20.219-62zm-27.074 152h114.09c22.714 9.488 43.418 24.43 60.683 43.715C305.848 263.82 301 274.852 301 287c0 11.516 4.355 22.031 11.496 30-7.14 7.969-11.496 18.484-11.496 30s4.355 22.031 11.496 30c-7.14 7.969-11.496 18.484-11.496 30s4.355 22.031 11.496 30c-7.14 7.969-11.496 18.484-11.496 30 0 .309.016.613.023.918C275.648 477.5 241.852 482 196 482c-55.656 0-94.012-6.656-120.7-20.945C44.396 444.508 30 417.8 30 377c0-70.75 44.656-138.172 108.926-165zm0 0" fill="#000000" opacity="1" data-original="#000000" class=""></path></g></svg>