<svg xmlns="http://www.w3.org/2000/svg" version="1.1" xmlns:xlink="http://www.w3.org/1999/xlink" width="512" height="512" x="0" y="0" viewBox="0 0 32 32" style="enable-background:new 0 0 512 512" xml:space="preserve" class=""><g><path d="M28.681 11.69V9.078c0-2.476-2.02-4.49-4.501-4.49H6.6a4.5 4.5 0 0 0-4.5 4.49v6.33a.9.9 0 0 0 1.8 0v-6.33a2.698 2.698 0 0 1 2.699-2.69h17.58c1.489 0 2.7 1.207 2.7 2.69v2.495h-3.024a4.113 4.113 0 0 0-4.109 4.109v.633a4.114 4.114 0 0 0 4.109 4.109h3.024v2.494a2.697 2.697 0 0 1-2.7 2.689H14.11a.9.9 0 0 0 0 1.8h10.07c2.481 0 4.501-2.015 4.501-4.49v-2.612a1.848 1.848 0 0 0 1.22-1.732V13.42a1.848 1.848 0 0 0-1.22-1.73zm-7.134 4.624v-.633a2.311 2.311 0 0 1 2.309-2.309l4.244.049v5.153a.048.048 0 0 1-.049.049h-4.195a2.31 2.31 0 0 1-2.309-2.309z" fill="#000000" opacity="1" data-original="#000000" class=""></path><path d="M7.5 16.613a5.406 5.406 0 0 0-5.4 5.4c0 2.977 2.423 5.399 5.4 5.399s5.4-2.423 5.4-5.399c0-2.978-2.422-5.4-5.4-5.4zm0 8.998c-1.985 0-3.6-1.614-3.6-3.599s1.614-3.6 3.6-3.6 3.6 1.614 3.6 3.6a3.603 3.603 0 0 1-3.6 3.599z" fill="#000000" opacity="1" data-original="#000000" class=""></path><path d="M9.041 21.111h-.64v-.641a.9.9 0 0 0-1.8 0v.641h-.64a.9.9 0 0 0 0 1.8h.64v.64a.9.9 0 0 0 1.8 0v-.64h.64a.9.9 0 0 0 0-1.8z" fill="#000000" opacity="1" data-original="#000000" class=""></path></g></svg>