<svg xmlns="http://www.w3.org/2000/svg" version="1.1" xmlns:xlink="http://www.w3.org/1999/xlink" width="512" height="512" x="0" y="0" viewBox="0 0 512 512"
     style="enable-background:new 0 0 512 512" xml:space="preserve" class=""><g><path fill-rule="evenodd" d="M217.257.879C97.269.879 0 98.148 0 218.136s97.269 217.257 217.257 217.257 217.257-97.269 217.257-217.257S337.245.879 217.257.879zM503.046 501.78c-12.089 12.302-31.975 12.476-44.277.388l-86.843-85.334a253.343 253.343 0 0 0 44.247-44.314l86.485 84.983c12.302 12.088 12.477 31.974.388 44.277zM217.257 61.369c86.58 0 156.766 70.187 156.766 156.766s-70.187 156.766-156.766 156.766c-86.58 0-156.766-70.187-156.766-156.766S130.678 61.369 217.257 61.369z" clip-rule="evenodd" fill="currentColor" class=""></path></g></svg>