<svg xmlns="http://www.w3.org/2000/svg" version="1.1" xmlns:xlink="http://www.w3.org/1999/xlink" width="512" height="512" x="0" y="0" viewBox="0 0 128 128"
     style="enable-background:new 0 0 512 512" xml:space="preserve" class=""><g><path d="M109.932 10.858 78.62 3.941c-4.319-.955-8.989.139-12.437 2.907a14.678 14.678 0 0 0-5.358 9.43H43.02c-3.061 0-5.951 1.121-8.138 3.155-2.237 2.079-3.521 4.981-3.521 7.962v9.08a4 4 0 0 0 8 0v-9.08c0-.776.343-1.522.968-2.103.692-.645 1.674-1.014 2.69-1.014h17.642v79.581H43.02c-1.018 0-1.999-.37-2.693-1.015-.622-.578-.965-1.324-.965-2.102v-9.079a4 4 0 0 0-8 0v9.079c0 2.982 1.283 5.885 3.521 7.962 2.188 2.034 5.078 3.154 8.138 3.154H60.85a14.676 14.676 0 0 0 5.335 9.292 14.812 14.812 0 0 0 9.249 3.255c1.07 0 2.143-.117 3.188-.348l31.311-6.916c7.686-1.698 13.053-8.38 13.053-16.25V27.108c-.003-7.871-5.37-14.553-13.054-16.25zm5.051 90.035a8.588 8.588 0 0 1-6.777 8.438l-31.312 6.917a6.85 6.85 0 0 1-5.701-1.332 6.745 6.745 0 0 1-2.532-5.282V18.367c0-2.064.923-3.989 2.532-5.282a6.796 6.796 0 0 1 4.24-1.492c.49 0 .982.054 1.461.16l31.312 6.917a8.588 8.588 0 0 1 6.777 8.438z" fill="#000000" opacity="1" data-original="#000000" class=""></path><path
        d="M82.509 54.848a4 4 0 0 0-4 4v10.753a4 4 0 0 0 8 0V58.848a4 4 0 0 0-4-4zM32.842 75.583a3.997 3.997 0 0 0 0 5.656c.78.781 1.805 1.172 2.828 1.172s2.047-.391 2.828-1.172L52.84 66.898a4.001 4.001 0 0 0 0-5.657L38.498 46.9a4 4 0 1 0-5.656 5.657l7.513 7.513H9.017a4 4 0 0 0 0 8h31.338z"
        fill="currentColor"></path></g></svg>