<svg xmlns="http://www.w3.org/2000/svg" version="1.1" xmlns:xlink="http://www.w3.org/1999/xlink" width="512" height="512" x="0" y="0" viewBox="0 0 24 24"
     style="enable-background:new 0 0 512 512" xml:space="preserve" class=""><g><g data-name="Layer 2"><path d="M2 10.75a.75.75 0 0 1-.53-1.28l5.46-5.46a1.75 1.75 0 0 1 2.105-.282l5.674 3.242a.253.253 0 0 0 .3-.04L21.47.47a.75.75 0 0 1 1.06 1.06l-6.46 6.46a1.753 1.753 0 0 1-2.105.282L8.291 5.03a.249.249 0 0 0-.3.04L2.53 10.53a.744.744 0 0 1-.53.22z" fill="currentColor"></path><path
        d="M22 5.75a.75.75 0 0 1-.75-.75V1.75H18a.75.75 0 0 1 0-1.5h4a.75.75 0 0 1 .75.75v4a.75.75 0 0 1-.75.75zM9.333 23.75a.75.75 0 0 1-.75-.75V10a.75.75 0 0 1 1.5 0v13a.75.75 0 0 1-.75.75zM14.667 23.75a.75.75 0 0 1-.75-.75V13a.75.75 0 0 1 1.5 0v10a.75.75 0 0 1-.75.75zM20 23.75a.75.75 0 0 1-.75-.75V10a.75.75 0 0 1 1.5 0v13a.75.75 0 0 1-.75.75zM4 23.75a.75.75 0 0 1-.75-.75V13a.75.75 0 0 1 1.5 0v10a.75.75 0 0 1-.75.75z"
        fill="currentColor"></path></g></g></svg>