<svg xmlns="http://www.w3.org/2000/svg" version="1.1" xmlns:xlink="http://www.w3.org/1999/xlink" width="512"
     height="512" x="0" y="0" viewBox="0 0 24 24" style="enable-background:new 0 0 512 512" xml:space="preserve"
     class=""><g><g data-name="Layer 2"><path d="M12 18a6 6 0 1 1 6-6 6 6 0 0 1-6 6zm0-10a4 4 0 1 0 4 4 4 4 0 0 0-4-4z" fill="#000000" opacity="1" data-original="#000000"></path><path
        d="M12 15a1 1 0 0 1-1-1v-4a1 1 0 0 1 1-1 3 3 0 0 1 0 6zM12 5a1 1 0 0 1-1-1V3a1 1 0 0 1 2 0v1a1 1 0 0 1-1 1zM17.66 7.34a1 1 0 0 1-.66-.29 1 1 0 0 1 0-1.41l.71-.71a1 1 0 1 1 1.41 1.41l-.71.71a1 1 0 0 1-.75.29zM21 13h-1a1 1 0 0 1 0-2h1a1 1 0 0 1 0 2zM18.36 19.36a1 1 0 0 1-.7-.29l-.66-.71A1 1 0 0 1 18.36 17l.71.71a1 1 0 0 1 0 1.41 1 1 0 0 1-.71.24zM12 22a1 1 0 0 1-1-1v-1a1 1 0 0 1 2 0v1a1 1 0 0 1-1 1zM5.64 19.36a1 1 0 0 1-.71-.29 1 1 0 0 1 0-1.41l.71-.66a1 1 0 0 1 1.41 1.41l-.71.71a1 1 0 0 1-.7.24zM4 13H3a1 1 0 0 1 0-2h1a1 1 0 0 1 0 2zM6.34 7.34a1 1 0 0 1-.7-.29l-.71-.71a1 1 0 0 1 1.41-1.41l.71.71a1 1 0 0 1 0 1.41 1 1 0 0 1-.71.29z"
        fill="#000000" opacity="1" data-original="#000000"></path></g></g></svg>