<svg xmlns="http://www.w3.org/2000/svg" version="1.1" xmlns:xlink="http://www.w3.org/1999/xlink" width="512" height="512" x="0" y="0" viewBox="0 0 32 32" style="enable-background:new 0 0 512 512" xml:space="preserve" class=""><g><g data-name="Layer 2"><path d="M16 17.25a2.875 2.875 0 1 1 2.875-2.875 1 1 0 0 1-2 0 .875.875 0 1 0-.875.875 1 1 0 0 1 0 2z" fill="#000000" opacity="1" data-original="#000000" class=""></path><path d="M16 21a2.879 2.879 0 0 1-2.875-2.875 1 1 0 0 1 2 0A.875.875 0 1 0 16 17.25a1 1 0 0 1 0-2A2.875 2.875 0 0 1 16 21zM16 13.5a1 1 0 0 1-1-1v-1.25a1 1 0 0 1 2 0v1.25a1 1 0 0 1-1 1z" fill="#000000" opacity="1" data-original="#000000" class=""></path><path d="M16 22.25a1 1 0 0 1-1-1V20a1 1 0 0 1 2 0v1.25a1 1 0 0 1-1 1z" fill="#000000" opacity="1" data-original="#000000" class=""></path><path d="M16 25.5a9.5 9.5 0 1 1 9.5-9.5 9.511 9.511 0 0 1-9.5 9.5zm0-17a7.5 7.5 0 1 0 7.5 7.5A7.508 7.508 0 0 0 16 8.5zM26 30a1 1 0 0 1-.707-1.707L27.584 26l-2.293-2.293a1 1 0 0 1 1.414-1.414l3 3a1 1 0 0 1 0 1.414l-3 3A1 1 0 0 1 26 30z" fill="#000000" opacity="1" data-original="#000000" class=""></path><path d="M21 27a1 1 0 0 1 0-2h8a1 1 0 0 1 0 2zM6 10a1 1 0 0 1-.707-.293l-3-3a1 1 0 0 1 0-1.414l3-3a1 1 0 0 1 1.414 1.414L4.414 6l2.293 2.293A1 1 0 0 1 6 10z" fill="#000000" opacity="1" data-original="#000000" class=""></path><path d="M11 7H3a1 1 0 0 1 0-2h8a1 1 0 0 1 0 2z" fill="#000000" opacity="1" data-original="#000000" class=""></path></g></g></svg>