<svg xmlns="http://www.w3.org/2000/svg" version="1.1" xmlns:xlink="http://www.w3.org/1999/xlink" width="512" height="512" x="0" y="0" viewBox="0 0 512 512"
     style="enable-background:new 0 0 512 512" xml:space="preserve" class=""><g><g fill="#ffa726"><path d="M368.2 267.2c51.3 0 93 41.8 93 93s-41.8 93-93 93c-9.7 0-19-1.5-27.8-4.3-24.1-7.6-44.1-24.8-55.3-47.1-.1-.3-.2-.6-.4-.8-6-12.3-9.4-26.1-9.4-40.8 0-3.8.2-7.5.7-11.2 2.3-19.2 10.5-36.7 22.8-50.5 16.8-19.2 41.7-31.3 69.4-31.3zm75.3 93c0-41.5-33.8-75.3-75.3-75.3s-75.3 33.8-75.3 75.3 33.8 75.3 75.3 75.3 75.3-33.8 75.3-75.3z" fill="#ffa726" opacity="1" data-original="#ffa726" class=""></path><path
        d="M368.2 294.7c36.1 0 65.5 29.4 65.5 65.5s-29.4 65.5-65.5 65.5-65.5-29.4-65.5-65.5 29.4-65.5 65.5-65.5zm17.2 53.3c2.7 0 4.9-2.2 4.9-4.9 0-10.5-7.4-19.3-17.2-21.5v-7.1c0-2.7-2.2-4.9-4.9-4.9s-4.9 2.2-4.9 4.9v7.1c-9.7 2.3-17 11.1-17 21.5 0 12.1 9.8 22 22 22 6.8 0 12.3 5.5 12.3 12.3 0 6.6-5.1 11.9-11.6 12.3-.3-.1-.5-.1-.8-.1-.2 0-.5 0-.8.1-6.4-.4-11.5-5.8-11.5-12.3 0-2.7-2.2-4.9-4.9-4.9s-4.9 2.2-4.9 4.9c0 10.4 7.3 19.3 17.1 21.5v7c0 2.7 2.2 4.9 4.9 4.9s4.9-2.2 4.9-4.9v-7c9.9-2.2 17.1-11 17.1-21.5 0-12.1-9.8-22.1-22-22.1-6.8 0-12.3-5.5-12.3-12.3s5.5-12.3 12.3-12.3 12.3 5.5 12.3 12.3c.1 2.7 2.3 5 5 5zM363.3 221v36.5c-27.7 1.3-52.6 13.6-70.4 32.7-4.6 0-11.9.1-22.3.1-25.4 0-49.3-4-67.1-11.1-16.2-6.5-25.4-14.9-25.4-23.2v-16.5c.1-.4.1-.9 0-1.3v-17.3c5.3 4.9 12.6 9.2 21.9 12.9 19 7.6 44.1 11.8 70.8 11.8s51.8-4.1 70.8-11.8c9.1-3.6 16.4-8 21.7-12.8z"
        fill="#ffa726" opacity="1" data-original="#ffa726" class=""></path><path
        d="M363.3 201.6s0 .1 0 0c-.2 16.2-38.1 34.3-92.5 34.3s-92.4-18-92.5-34.2v-.1c0-5 3.6-10.1 10.1-14.8 10.5-7.7 28.7-14.3 52.1-17.5h.6c.6 0 1.2-.1 1.8-.3 8.7-1.1 18.1-1.7 28.1-1.7 54.3 0 92.3 18.1 92.3 34.3zM320 451c-16.5 1.4-37.1 2.2-49.3 2.2-22.8 0-44.9-3.4-62.1-9.3-19.1-6.6-30.5-16-30.5-25.1v-16.2c.1-.4.1-.9 0-1.4V381c6.4 5 16 9.7 28.7 14 19.9 6.7 46 11.5 70.4 13.1 9.7 18.3 24.6 33.2 42.8 42.9zM270.6 300.1c5.6 0 10.3 0 14.2-.1-9.1 12.6-15.4 27.3-18 43.2-21.4-2.3-43.4-7.2-59.9-13-21.2-7.6-28.7-15.2-28.7-19.8v-16.5c.1-.4.1-.9 0-1.4v-17.2c5.3 4.8 12.6 9.2 21.8 12.8 18.8 7.8 44 12 70.6 12zM265.6 352.9c-.2 2.4-.3 4.9-.3 7.3 0 13.4 2.6 26.1 7.2 37.8-22-1.9-44.8-6.3-62.6-12.2-23.4-7.9-31.8-16.1-31.8-21.2 0-.3 0-.6-.1-.9v-15.5c.1-.4.1-.9 0-1.4v-20.2c18.1 14 57.1 22.9 87.6 26.3zM236 112.4V160c-13.4 2-25.6 5.2-36 9.3-6.5 2.6-12 5.5-16.6 8.7-12.6 2.4-26 3.6-40 3.6-54.5 0-92.5-18-92.5-34.3v-34.9c5.3 4.8 12.6 9.2 21.8 12.8 19 7.6 44.1 11.9 70.8 11.9 26.6 0 51.7-4.2 70.8-11.9 9-3.6 16.4-8 21.7-12.8z"
        fill="#ffa726" opacity="1" data-original="#ffa726" class=""></path><ellipse cx="143.4" cy="93.1" rx="92.5" ry="34.3" fill="#ffa726" opacity="1" data-original="#ffa726"
                                                                                    class=""></ellipse><path
        d="M168.3 418.7c0 11.2 8.5 21.2 24.1 29-14.8 3.6-31.7 5.5-49.1 5.5-54.5 0-92.5-18-92.5-34.3V384c5.3 4.8 12.6 9.2 21.8 12.8 19 7.6 44.1 11.8 70.8 11.8 8.7 0 17.1-.4 24.9-1.3zM171.9 189.8c-2.1 3.5-3.3 7.1-3.5 10.9-.1.3-.1.7-.1 1v32.9c-7.7.9-16.1 1.3-24.9 1.3-54.5 0-92.5-18-92.5-34.3v-34.8c5.3 4.8 12.6 9.2 21.8 12.8 19 7.6 44.1 11.8 70.8 11.8 9.6.1 19.2-.5 28.4-1.6z"
        fill="#ffa726" opacity="1" data-original="#ffa726" class=""></path><path
        d="M168.3 364.6v33c-7.7.9-16.1 1.3-24.9 1.3-54.5 0-92.5-18-92.5-34.3v-35c5.3 4.8 12.6 9.2 21.8 12.8 19 7.6 44.1 11.8 70.8 11.8 8.7 0 17.1-.4 24.9-1.3v11.7zM168.3 256v33c-7.7.9-16.1 1.3-24.9 1.3-54.5 0-92.5-18-92.5-34.3v-35c5.3 4.8 12.6 9.2 21.8 12.8 19 7.6 44.1 11.8 70.8 11.8 8.7 0 17.1-.4 24.9-1.3V256z"
        fill="#ffa726" opacity="1" data-original="#ffa726" class=""></path><path
        d="M168.3 310.4v32.8c-7.7.9-16.1 1.3-24.9 1.3-54.5 0-92.5-18-92.5-34.3v-34.8c5.3 4.8 12.6 9.2 21.8 12.8 19 7.6 44.1 11.9 70.8 11.9 8.7 0 17.1-.4 24.9-1.3v11.6z"
        fill="#ffa726" opacity="1" data-original="#ffa726" class=""></path></g></g></svg>